<?xml version="1.0" encoding="utf-8"?>
<!-- Generator: Adobe Illustrator 17.0.0, SVG Export Plug-In . SVG Version: 6.00 Build 0)  -->
<!DOCTYPE svg PUBLIC "-//W3C//DTD SVG 1.1//EN" "http://www.w3.org/Graphics/SVG/1.1/DTD/svg11.dtd">
<svg version="1.1" id="Layer_1" xmlns="http://www.w3.org/2000/svg" xmlns:xlink="http://www.w3.org/1999/xlink" x="0px" y="0px"
	 width="44.323px" height="87.075px" viewBox="0 0 44.323 87.075" enable-background="new 0 0 44.323 87.075" xml:space="preserve">
<path fill="#FFFFFF" d="M22.369,0.05c3.998,0.002,7.999,0.102,11.992-0.029c3.304-0.109,4.599,1.139,4.973,4.589
	c0.62,5.708,1.49,11.481,3.129,16.966c3.751,12.555,2.069,23.673-7.249,33.251c-2.555,2.626-5.766,4.863-7.534,7.936
	c-1.784,3.102-2.402,6.981-2.954,10.608c-0.133,0.871,1.836,2.489,3.146,3.069c3.03,1.342,6.302,2.135,9.363,3.418
	c1.068,0.448,2.464,1.656,2.502,2.567c0.035,0.844-1.4,2.265-2.434,2.558c-9.992,2.822-20.058,2.735-30.068,0.084
	c-1.06-0.281-2.466-1.579-2.553-2.512c-0.076-0.826,1.299-2.151,2.326-2.638c2.24-1.061,4.666-1.732,7.017-2.558
	c6.441-2.261,8.137-7.821,3.835-13.384c-2.025-2.617-4.492-4.913-6.894-7.213C-0.137,46.129-2.621,33.79,2.664,19.373
	C4.335,14.817,4.6,9.68,5.053,4.767c0.301-3.264,1.335-4.899,4.825-4.759C14.035,0.175,18.205,0.048,22.369,0.05z M11.403,4.784
	C9.831,10.997,8.81,16.528,7.023,21.8C2.401,35.434,5.731,47.136,17.097,55.951c2.936,2.277,6.145,3.123,9.141,0.717
	c7.946-6.379,15.532-15.585,12.851-27.79c-1.631-7.423-3.369-14.825-5.237-22.191c-0.2-0.79-1.584-1.802-2.438-1.82
	C24.491,4.719,17.564,4.784,11.403,4.784z"/>
<path fill="#FFFFFF" d="M22.507,15.206c11.015-0.032,11.016-0.032,13.81,10.753c2.929,11.305-0.725,21.324-10.09,28.104
	c-2.86,2.071-5.405,1.961-8.184-0.083c-11.711-8.613-14.78-24.958-6.768-37.026c0.6-0.903,2.107-1.565,3.254-1.672
	C17.168,15.038,19.845,15.206,22.507,15.206z M20.588,48.262c-8.012-7.219-8.211-15.99-5.165-25.469
	C8.204,30.263,11.367,45.701,20.588,48.262z"/>
</svg>
