<?xml version="1.0" encoding="utf-8"?>
<!-- Generator: Adobe Illustrator 17.0.0, SVG Export Plug-In . SVG Version: 6.00 Build 0)  -->
<!DOCTYPE svg PUBLIC "-//W3C//DTD SVG 1.1//EN" "http://www.w3.org/Graphics/SVG/1.1/DTD/svg11.dtd">
<svg version="1.1" id="Layer_1" xmlns="http://www.w3.org/2000/svg" xmlns:xlink="http://www.w3.org/1999/xlink" x="0px" y="0px"
	 width="960px" height="560px" viewBox="0 0 960 560" enable-background="new 0 0 960 560" xml:space="preserve">
<path fill="white" d="M560.548,288.95c-5.114-5.114-5.114-12.785,0-17.9L752.329,79.269c5.114-5.114,7.671-12.785,7.671-17.9
	s-2.557-12.785-7.671-17.9L716.53,7.671C711.416,2.557,703.744,0,698.63,0c-7.671,0-12.785,2.557-17.9,7.671L488.95,199.452
	c-5.114,5.114-12.785,5.114-17.9,0L279.269,7.671C274.155,2.557,266.484,0,261.37,0c-5.114,0-12.785,2.557-17.9,7.671L207.671,43.47
	C202.557,48.584,200,56.256,200,61.37s2.557,12.785,7.671,17.9L399.452,271.05c5.114,5.114,5.114,12.785,0,17.9L207.671,480.731
	c-5.114,5.114-7.671,12.785-7.671,17.9s2.557,12.785,7.671,17.9l35.799,35.799c5.114,5.114,12.785,7.671,17.9,7.671
	c5.114,0,12.785-2.557,17.9-7.671L471.05,360.548c5.114-5.114,12.785-5.114,17.9,0l191.781,191.781
	c5.114,5.114,12.785,7.671,17.9,7.671s12.785-2.557,17.9-7.671l35.799-35.799c5.114-5.114,7.671-12.785,7.671-17.9
	s-2.557-12.785-7.671-17.9L560.548,288.95z"/>
</svg>
